<svg id="Layer_1" data-name="Layer 1" xmlns="http://www.w3.org/2000/svg" viewBox="0 0 675 160"><defs><style>.cls-1{fill:#353248;}</style></defs><title>Dazaar_logo</title><path class="cls-1" d="M98.3,79.87a97.78,97.78,0,0,1-2.45,22.18A54.64,54.64,0,0,1,88,120.53,39.85,39.85,0,0,1,74.17,133.2q-8.49,4.71-20.49,4.71H16v-116H53.68q11.82,0,20.31,4.75A40.44,40.44,0,0,1,87.85,39.35a55.54,55.54,0,0,1,7.91,18.4A93.83,93.83,0,0,1,98.3,79.87Zm-18.4,0q0-20.1-6.84-30.74T53.68,38.46H34.4v82.92H53.68q12.54,0,19.38-10.86T79.9,79.83Z"/><path class="cls-1" d="M192.87,137.91l-8.36-27.64H146.12l-8.18,27.64H118.66l36.17-116H176l36.17,116ZM151,94h28.62L165.41,46.19Z"/><path class="cls-1" d="M312.66,137.91H238.54V121.54l51.9-83.08H255.07V55.79H238.54V21.93h72.61V38.55l-50.39,82.83h35.63V103.79h16.27Z"/><path class="cls-1" d="M413.43,137.91l-8.36-27.64H366.68l-8.17,27.64H339.22l36.17-116h21.15l36.17,116ZM371.57,94h28.62L386,46.19Z"/><path class="cls-1" d="M527.67,137.91l-8.36-27.64H480.92l-8.18,27.64H453.46l36.17-116h21.15l36.17,116ZM485.81,94h28.61L500.2,46.19Z"/><path class="cls-1" d="M655.39,137.91H632.1L602.07,91h-8.36v46.93h-18.4v-116h38.22q19.11,0,29.68,8.75t10.58,25.91a35.66,35.66,0,0,1-2.36,13.46,28.66,28.66,0,0,1-6.66,10,32.72,32.72,0,0,1-10,6.62A47.87,47.87,0,0,1,622.33,90Zm-20-81.68q0-8.88-5.82-13.33t-16-4.44H593.71V74.28h19.82q10.22,0,16-4.45T635.39,56.23Z"/></svg>